<svg width="20" height="20" viewBox="0 0 20 20" fill="none" xmlns="http://www.w3.org/2000/svg">
<path d="M10.49 0.5C8.61107 0.5 6.77434 1.05717 5.21208 2.10104C3.64981 3.14491 2.43217 4.62861 1.71314 6.36451C0.994113 8.10041 0.805973 10.0105 1.17253 11.8534C1.53909 13.6962 2.44388 15.3889 3.77248 16.7175C5.10108 18.0461 6.79382 18.9509 8.63664 19.3175C10.4795 19.684 12.3896 19.4959 14.1255 18.7769C15.8614 18.0578 17.3451 16.8402 18.389 15.2779C19.4328 13.7157 19.99 11.8789 19.99 10C19.99 7.48044 18.9891 5.06408 17.2075 3.28249C15.4259 1.50089 13.0096 0.5 10.49 0.5ZM14.878 8.5H17.839C18.1116 9.8343 18.013 11.2178 17.554 12.5H14.878C14.9529 11.836 14.9903 11.1682 14.99 10.5C14.9903 9.8318 14.9529 9.164 14.878 8.5ZM17.554 7.5H14.734C14.4962 5.84122 13.8638 4.26373 12.89 2.9C13.9644 3.26457 14.9423 3.86787 15.7501 4.66458C16.5579 5.4613 17.1746 6.43071 17.554 7.5ZM12.273 17.278C11.8516 17.3818 11.422 17.4487 10.989 17.478V13.5H13.715C13.4991 14.8449 13.0086 16.1309 12.274 17.278H12.273ZM8.70599 17.278C7.97107 16.131 7.48021 14.845 7.26399 13.5H9.98999V17.475C9.55709 17.4467 9.12749 17.3808 8.70599 17.278ZM13.716 7.5H10.99V2.594C12.144 3.027 13.227 4.913 13.716 7.5ZM9.98999 2.594V7.5H7.26399C7.75299 4.913 8.83599 3.027 9.98999 2.594ZM9.98999 8.5V12.5H7.10899C6.95031 11.1714 6.95031 9.8286 7.10899 8.5H9.98999ZM10.99 12.5V8.5H13.871C13.9507 9.1637 13.9905 9.8315 13.99 10.5C13.9905 11.1685 13.9507 11.8363 13.871 12.5H10.99ZM8.08999 2.9C7.11617 4.26373 6.4838 5.84122 6.24599 7.5H3.42599C3.80537 6.43071 4.42213 5.4613 5.22993 4.66458C6.03773 3.86787 7.01557 3.26457 8.08999 2.9ZM6.10199 12.5H3.42599C2.96698 11.2178 2.86841 9.8343 3.14099 8.5H6.10199C5.95331 9.8292 5.95331 11.1708 6.10199 12.5ZM3.85899 13.5H6.24599C6.43407 14.6286 6.77592 15.7262 7.26199 16.762C5.80745 16.0674 4.61452 14.9239 3.85899 13.5ZM13.718 16.762C14.2041 15.7262 14.5459 14.6286 14.734 13.5H17.121C16.3655 14.9239 15.1725 16.0674 13.718 16.762Z" fill="white"/>
</svg>
