<svg width="16" height="16" viewBox="0 0 16 16" fill="none" xmlns="http://www.w3.org/2000/svg">
<path fill-rule="evenodd" clip-rule="evenodd" d="M12.4171 0.800049H3.58301C2.04885 0.800049 0.800049 2.04805 0.800049 3.58301V12.4171C0.800049 13.952 2.04885 15.2 3.58301 15.2H12.4171C13.9512 15.2 15.2 13.952 15.2 12.4171V3.58301C15.2 2.04805 13.9512 0.800049 12.4171 0.800049ZM13.2872 2.40173L13.6 2.40005V4.79261L11.2084 4.80005L11.2 2.40749L13.2872 2.40173ZM6.05381 6.60061C6.48997 5.99613 7.19869 5.60005 7.99965 5.60005C8.80061 5.60005 9.50933 5.99613 9.94549 6.60061C10.23 6.99509 10.4 7.47773 10.4 8.00045C10.4 9.32333 9.32333 10.4 7.99965 10.4C6.67677 10.4 5.60005 9.32333 5.60005 8.00045C5.60005 7.47773 5.77005 6.99509 6.05381 6.60061ZM13.6 12.2343C13.6 12.9876 13.0022 13.6 12.2669 13.6H3.73317C2.99789 13.6 2.40005 12.9876 2.40005 12.2343V6.40005H4.47749C4.29749 6.85253 4.19693 7.34605 4.19693 7.86301C4.19693 10.0113 5.90301 11.76 8.00005 11.76C10.0979 11.76 11.804 10.0113 11.804 7.86301C11.804 7.34605 11.7017 6.85253 11.5235 6.40005H13.6V12.2343Z" fill="white"/>
</svg>
