<svg width="13" height="13" viewBox="0 0 13 13" fill="none" xmlns="http://www.w3.org/2000/svg">
<path fill-rule="evenodd" clip-rule="evenodd" d="M0.311035 4.02841H2.88248V12.5999H0.311035V4.02841ZM1.5904 3.17121H1.57504C0.808235 3.17121 0.311035 2.60473 0.311035 1.88729C0.311035 1.15521 0.822875 0.599854 1.60504 0.599854C2.38656 0.599854 2.86712 1.15377 2.88248 1.88521C2.88248 2.60257 2.38656 3.17121 1.5904 3.17121ZM12.311 12.5999H9.73112V8.20609C9.73112 7.05625 9.3276 6.27209 8.44016 6.27209C7.76144 6.27209 7.38392 6.80097 7.20824 7.31225C7.14232 7.49473 7.15264 7.75001 7.15264 8.00601V12.5999H4.5968C4.5968 12.5999 4.62967 4.81737 4.5968 4.11001H7.15264V5.44225C7.3036 4.85977 8.12032 4.02841 9.42367 4.02841C11.0406 4.02841 12.311 5.25025 12.311 7.87881V12.5999Z" fill="white"/>
</svg>
