<svg width="56" height="56" viewBox="0 0 56 56" fill="none" xmlns="http://www.w3.org/2000/svg">
<rect width="56" height="56" rx="28" fill="#0B8141"/>
<g clip-path="url(#clip0_1_242)">
<path fill-rule="evenodd" clip-rule="evenodd" d="M32 26H24C23.7348 26 23.4804 25.8946 23.2929 25.7071C23.1054 25.5196 23 25.2652 23 25C23 24.7348 23.1054 24.4804 23.2929 24.2929C23.4804 24.1054 23.7348 24 24 24H32C32.2652 24 32.5196 24.1054 32.7071 24.2929C32.8946 24.4804 33 24.7348 33 25C33 25.2652 32.8946 25.5196 32.7071 25.7071C32.5196 25.8946 32.2652 26 32 26ZM30 30H24C23.7348 30 23.4804 29.8946 23.2929 29.7071C23.1054 29.5196 23 29.2652 23 29C23 28.7348 23.1054 28.4804 23.2929 28.2929C23.4804 28.1054 23.7348 28 24 28H30C30.2652 28 30.5196 28.1054 30.7071 28.2929C30.8946 28.4804 31 28.7348 31 29C31 29.2652 30.8946 29.5196 30.7071 29.7071C30.5196 29.8946 30.2652 30 30 30ZM28 18C20.636 18 18 19.636 18 27C18 32.356 19.406 34.675 23 35.545V38.36C23 38.642 23.307 38.815 23.548 38.671L28 36C35.364 36 38 34.363 38 27C38 19.636 35.364 18 28 18Z" fill="white"/>
</g>
<defs>
<clipPath id="clip0_1_242">
<rect width="24" height="24" fill="white" transform="translate(16 16)"/>
</clipPath>
</defs>
</svg>
