<svg width="36" height="36" viewBox="0 0 36 36" fill="none" xmlns="http://www.w3.org/2000/svg">
<path fill-rule="evenodd" clip-rule="evenodd" d="M36 18C36 27.9411 27.9411 36 18 36C8.0589 36 0 27.9411 0 18C0 8.0589 8.0589 0 18 0C27.9411 0 36 8.0589 36 18ZM4.1352 18.2341C4.1823 18.2513 7.9365 19.6163 11.9104 18.7306C17.0518 17.5847 15.4894 11.8335 12.2792 11.4582C11.6407 11.3836 5.8587 11.4066 5.8587 11.4066V12.0326H7.3849V17.9562H9.1083V11.8336H10.7168C10.7168 11.8336 14.3782 12.5888 13.2741 16.2401C12.1527 19.9487 4.2012 18.2483 4.1352 18.2341ZM7.3752 23.2283V19.5531L7.385 19.5192H9.0872V23.3075C9.0872 23.8845 9.6547 23.9489 9.6547 23.9489H10.7549V24.6238H5.7813V24.0104H6.6596C7.3651 24.0104 7.3752 23.2283 7.3752 23.2283ZM13.7337 24.6543H13.7319L13.7337 24.7052V24.6543ZM18.7413 24.6543H13.7337V23.9318H15.1276C16.001 23.9318 15.9606 23.1361 15.9606 23.1361C15.9606 23.1361 16.0807 12.8857 16.0807 12.4204C16.0807 11.955 15.7744 11.9888 15.7744 11.9888H14.8914V11.355H17.6726L22.758 21.8854L27.8752 11.2801H30.9835V12.0276H29.9683C29.5369 12.0276 29.5297 12.2701 29.5297 12.2701V23.3679C29.5297 23.9032 30.0172 23.8554 30.0172 23.8554H31.1865V24.5548H26.1769L26.1862 23.9664C26.1862 23.9664 26.3501 23.943 27.1229 23.943C27.8957 23.943 27.7587 23.1873 27.7587 23.1873L27.8787 14.0438L22.4169 24.6427L16.8335 13.8368V23.087C16.8335 23.622 17.3013 23.8862 17.3013 23.8862H18.7413V24.6543Z" fill="#E33E23"/>
</svg>
