<svg width="15" height="12" viewBox="0 0 15 12" fill="none" xmlns="http://www.w3.org/2000/svg">
<path fill-rule="evenodd" clip-rule="evenodd" d="M12.598 2.06339C13.1743 1.69563 13.6166 1.11251 13.8241 0.417871C13.2845 0.759231 12.6882 1.00611 12.0519 1.13979C11.5443 0.560911 10.8187 0.199951 10.0156 0.199951C8.47498 0.199951 7.2265 1.53219 7.2265 3.17515C7.2265 3.40835 7.24962 3.63571 7.29754 3.85275C4.97938 3.72843 2.92386 2.54523 1.54682 0.743951C1.30658 1.18483 1.1693 1.69563 1.1693 2.24043C1.1693 3.27219 1.66178 4.18307 2.41058 4.71763C1.95314 4.70235 1.5229 4.56699 1.1461 4.34563V4.38227C1.1461 5.82427 2.10722 7.02715 3.38522 7.29955C3.15058 7.36931 2.90466 7.40427 2.64922 7.40427C2.46962 7.40427 2.29402 7.38635 2.12482 7.35147C2.47922 8.53299 3.50978 9.39451 4.73114 9.41747C3.77562 10.216 2.57258 10.691 1.26586 10.691C1.04074 10.691 0.818018 10.6782 0.600098 10.6501C1.83498 11.4937 3.30146 11.9866 4.87722 11.9866C10.01 11.9866 12.8151 7.45275 12.8151 3.52075C12.8151 3.39139 12.8135 3.26283 12.8079 3.13595C13.3531 2.71627 13.8273 2.19195 14.2001 1.59515C13.6996 1.83187 13.1615 1.99187 12.598 2.06339Z" fill="white"/>
</svg>
