<svg width="22" height="18" viewBox="0 0 22 18" fill="none" xmlns="http://www.w3.org/2000/svg">
<path fill-rule="evenodd" clip-rule="evenodd" d="M2 4.4286C2 3.0606 3.071 2 4.3333 2H17.6667C18.929 2 20 3.0606 20 4.4286V6H2V4.4286ZM0 7V4.4286C0 2.0095 1.9137 0 4.3333 0H17.6667C20.0863 0 22 2.0095 22 4.4286V7V13.5714C22 15.9905 20.0863 18 17.6667 18H4.3333C1.9137 18 0 15.9905 0 13.5714V7ZM20 8V13.5714C20 14.9394 18.929 16 17.6667 16H4.3333C3.071 16 2 14.9394 2 13.5714V8H20ZM9.981 11.964C9.981 11.4117 10.4287 10.964 10.981 10.964H10.9922C11.5445 10.964 11.9922 11.4117 11.9922 11.964C11.9922 12.5163 11.5445 12.964 10.9922 12.964H10.981C10.4287 12.964 9.981 12.5163 9.981 11.964ZM5.4912 10.964C4.9389 10.964 4.4912 11.4117 4.4912 11.964C4.4912 12.5163 4.9389 12.964 5.4912 12.964H7.718C8.2703 12.964 8.718 12.5163 8.718 11.964C8.718 11.4117 8.2703 10.964 7.718 10.964H5.4912Z" fill="#FFCF01"/>
</svg>
