<svg width="16" height="12" viewBox="0 0 16 12" fill="none" xmlns="http://www.w3.org/2000/svg">
<path fill-rule="evenodd" clip-rule="evenodd" d="M16 6.60401C16 7.89905 15.84 9.19401 15.84 9.19401C15.84 9.19401 15.684 10.296 15.204 10.782C14.596 11.419 13.914 11.422 13.601 11.459C11.362 11.621 8 11.626 8 11.626C8 11.626 3.84 11.588 2.56 11.466C2.204 11.399 1.404 11.419 0.796 10.782C0.316 10.296 0.16 9.19401 0.16 9.19401C0.16 9.19401 0 7.89905 0 6.60401V5.39001C0 4.09505 0.16 2.80105 0.16 2.80105C0.16 2.80105 0.316 1.69801 0.796 1.21201C1.404 0.575047 2.086 0.572007 2.39896 0.535047C4.638 0.373047 7.99704 0.373047 7.99704 0.373047H8.00296C8.00296 0.373047 11.362 0.373047 13.601 0.535047C13.914 0.572007 14.596 0.575047 15.204 1.21201C15.684 1.69801 15.84 2.80105 15.84 2.80105C15.84 2.80105 16 4.09505 16 5.39001V6.60401ZM6.34816 8.07505L10.6712 5.83505L6.3472 3.57905L6.34816 8.07505Z" fill="white"/>
</svg>
